<?xml version="1.0" encoding="utf-8"?>
<!-- Generator: Adobe Illustrator 25.4.1, SVG Export Plug-In . SVG Version: 6.00 Build 0)  -->
<svg version="1.1" xmlns="http://www.w3.org/2000/svg" xmlns:xlink="http://www.w3.org/1999/xlink" x="0px" y="0px"
	 viewBox="0 0 1063.24 170.72" style="enable-background:new 0 0 1063.24 170.72;" xml:space="preserve">
<style type="text/css">
	.st0{fill:#FFFFFF;}
	.st1{fill:#FFFFFF;}
	.st2{fill:#FFFFFF;}
</style>
<g id="图层_1">
</g>
<g id="图层_2">
</g>
<g id="图层_3">
	<g>
		<g>
			<path class="st0" d="M517.24,79.85v13.8H453.9v47.64h-17.28V75.96c0-6.29,0.29-11.12,0.87-14.51c0.58-3.38,1.66-6.6,3.25-9.67
				c3.54-6.87,8.67-11.71,15.38-14.51c6.71-2.8,16.44-4.2,29.17-4.2h31.95v13.79h-33.45c-8.19,0.06-14.03,0.9-17.52,2.54
				c-4.33,1.96-7.48,4.85-9.43,8.68c-1.96,3.83-2.93,9.03-2.93,15.58v6.18H517.24z"/>
			<path class="st0" d="M540.31,33.08h17.28v62.94c0,6.77,0.38,11.96,1.15,15.58c0.77,3.62,2.08,6.46,3.92,8.52
				c5.02,5.02,12.84,7.48,23.47,7.37h23.23v13.79h-26.64c-8.4,0-15.1-0.79-20.1-2.38c-5-1.59-9.37-4.33-13.12-8.24
				c-3.38-3.49-5.76-7.68-7.13-12.56c-1.37-4.89-2.06-11.56-2.06-20.02V33.08z"/>
			<path class="st0" d="M717.77,33.08v13.79h-31.55c-5.81,0-10.32,0.4-13.52,1.19c-3.2,0.79-6.06,2.2-8.6,4.2
				c-3.49,2.8-6.09,6.34-7.81,10.63c-1.72,4.28-2.79,9.94-3.21,16.96h64.69v13.8h-64.69c-0.16,7.77,1.56,14.82,5.15,21.16
				c2.7,4.65,6.08,7.93,10.15,9.83s9.72,2.85,16.96,2.85h32.42v13.79h-35.6c-9.09,0-16.46-1.03-22.12-3.09
				c-10.15-3.7-17.57-11.76-22.28-24.18c-2.54-6.66-3.81-14.9-3.81-24.73c0-13.05,2.06-23.62,6.18-31.71
				c4.6-8.93,10.44-15.25,17.52-18.95c7.08-3.7,16.94-5.55,29.57-5.55H717.77z"/>
			<path class="st0" d="M780.74,85.79l-35.91-52.72h20.69l26.64,39.79l29.89-39.79h20.69l-40.51,52.72l43.52,55.49h-21.01
				l-33.45-43.2l-32.03,43.2h-20.93L780.74,85.79z"/>
			<path class="st0" d="M867.36,141.29V33.08h17.28v108.21H867.36z"/>
			<path class="st0" d="M1026.24,33.08L980.1,141.29h-20.53L913.11,33.08h19.98l37.02,92.04l37.5-92.04H1026.24z"/>
		</g>
		<g id="g22_3_" transform="translate(-1102.3128,-286.587)">
			<path id="path4178_3_" class="st1" d="M1402.07,430.26c4.34,10.64,13.41,17.15,21.5,17.15c10.26,0,22.29-0.39,26.63-2.17
				c42.21-8.87-39.45-177.39-120.32-139.94c-23.67,11.04-86.99,94.02-133.34,117.28c-12.82,6.5-25.64,4.73-32.94,0.2
				c-7.5-4.53-13.41-11.43-15.78-28.38s6.31-38.24,22.88-52.04c14.99-12.61,39.84-17.35,56.61-4.73
				c16.77,12.81,27.02,26.21,27.02,26.21c5.52-5.32,18.74-19.71,27.62-28.19c-25.84-27.4-40.24-31.93-60.56-32.92
				c-20.32-0.99-36.69,3.94-58.78,21.48c-22.09,17.54-43.79,59.53-26.23,94.81c17.56,35.28,48.52,45.33,139.85-23.06
				c45.57-34.1,55.43-52.04,72.98-50.66C1373.07,347.28,1391.22,403.45,1402.07,430.26z"/>
			<path id="path4180_3_" class="st2" d="M1291.21,421.78c7.3,11.83,15.39,19.51,23.47,23.85c4.73,2.56,23.87,5.52,23.87-10.45
				c0-15.37-13.81-36.86-26.43-55.78c-9.67,9.07-18.74,16.95-31.17,26.41C1280.96,405.82,1287.07,415.08,1291.21,421.78
				L1291.21,421.78z"/>
		</g>
	</g>
</g>
</svg>
